<?xml version="1.0" standalone="no"?>
<!DOCTYPE svg PUBLIC "-//W3C//DTD SVG 20010904//EN"
 "http://www.w3.org/TR/2001/REC-SVG-20010904/DTD/svg10.dtd">
<svg version="1.0" xmlns="http://www.w3.org/2000/svg"
 width="700.000000pt" height="700.000000pt" viewBox="0 0 700.000000 700.000000"
 preserveAspectRatio="xMidYMid meet">
<metadata>
Created by potrace 1.11, written by Peter Selinger 2001-2013
</metadata>
<g transform="translate(0.000000,700.000000) scale(0.100000,-0.100000)"
fill="#000000" stroke="none">
<path d="M0 3500 l0 -3500 3500 0 3500 0 0 3500 0 3500 -3500 0 -3500 0 0
-3500z m5220 2300 l0 -149 -283 -433 c-677 -1033 -2095 -3200 -2144 -3275
l-53 -83 794 0 794 0 83 132 c179 287 342 613 478 956 18 45 36 82 38 82 20 0
358 -42 361 -45 2 -2 -19 -108 -47 -237 -29 -128 -105 -483 -170 -788 l-118
-555 -1646 -3 -1647 -2 0 154 0 154 1026 1574 c565 865 1096 1679 1182 1808
85 129 179 272 209 318 l53 82 -747 0 -748 0 -101 -193 c-146 -276 -268 -550
-333 -749 l-22 -67 -182 6 c-100 3 -184 7 -186 9 -2 2 53 300 122 661 69 362
132 688 138 726 l12 67 1569 0 1568 0 0 -150z"/>
<path d="M2271 5658 c-6 -29 -31 -159 -56 -288 -24 -129 -47 -246 -50 -260 -3
-14 44 72 105 190 104 200 134 256 198 368 l24 42 -105 0 -106 0 -10 -52z"/>
<path d="M4194 5158 c-199 -304 -796 -1220 -1327 -2035 -532 -815 -967 -1484
-967 -1487 0 -4 93 -5 206 -4 l206 3 461 705 c254 388 667 1018 917 1400 250
382 642 982 871 1333 l418 637 -213 0 -212 0 -360 -552z"/>
<path d="M4900 2388 c-72 -158 -246 -463 -374 -654 l-66 -99 146 -3 c81 -1
149 0 152 2 7 7 172 789 169 799 -1 5 -14 -15 -27 -45z"/>
</g>
</svg>
